<svg width="161" height="40" viewBox="0 0 161 40" fill="none" xmlns="http://www.w3.org/2000/svg">
<path fill-rule="evenodd" clip-rule="evenodd" d="M16.0209 9.14261C16.0209 5.69272 15.8293 6.07604 17.554 6.2677C18.8955 6.45936 20.4286 7.41766 21.3868 8.37597C22.7283 10.1009 23.1115 11.2509 23.1115 14.3175C25.0279 14.7008 26.7527 16.2341 27.9025 17.384C30.3938 20.6423 30.7771 24.4755 29.0523 28.117C28.669 29.0753 28.2858 29.6503 27.7108 30.2253C26.9443 31.1836 26.7527 31.3753 25.7945 31.9502C25.2196 32.3336 24.8363 32.7169 24.2614 32.9086C20.6202 34.6335 15.8293 33.6752 12.9547 30.8003C12.7631 30.6086 12.7631 30.6086 12.5714 30.2253C10.0802 27.542 9.3136 23.1338 11.0383 19.684C11.23 19.109 11.4216 18.7256 11.8049 18.1507C13.338 15.8507 16.4042 13.7425 19.6621 13.7425C19.6621 12.4008 19.8537 11.2509 18.5122 10.2926C17.1708 9.33427 16.0209 9.90925 16.0209 9.14261ZM106.474 27.3504H109.157V10.8676H106.474V27.3504ZM130.237 11.0592V13.5508H137.903C137.711 14.1258 131.579 24.0922 130.812 25.4338C130.62 25.8171 129.854 26.7754 129.854 27.3504H142.31V24.4755H134.836C135.028 23.9005 136.37 21.7922 136.753 21.0256C137.519 19.8756 138.094 18.7256 138.861 17.5757C139.244 17.0007 142.694 11.4425 142.885 10.6759H131.579C131.004 10.6759 130.237 10.4842 130.237 11.0592ZM13.338 23.5172C13.338 30.0336 20.8119 32.5252 24.8363 28.5004C29.4356 23.9005 25.4112 17.1924 20.6202 17.1924C19.2788 17.1924 18.3206 17.1924 17.1708 17.7673C15.2544 18.7256 13.338 21.0256 13.338 23.5172ZM113.756 19.109C113.756 12.5925 122.572 10.6759 125.255 16.6174C126.979 20.4506 124.296 25.0505 119.697 25.0505C116.439 25.0505 113.756 22.3672 113.756 19.109ZM125.829 12.5925C125.063 12.2092 124.488 11.4425 123.147 10.8676C114.714 7.60932 107.624 17.0007 112.415 24.0922L113.373 25.2421C113.756 25.6254 114.331 26.0088 114.714 26.2004C120.272 30.417 128.512 26.3921 128.512 18.9173V7.03434H125.829V12.5925ZM76.7702 12.9758C79.6447 12.9758 82.136 14.8924 82.7109 17.5757H71.2127C71.2127 15.6591 73.8956 12.9758 76.7702 12.9758ZM68.1465 18.7256C68.1465 27.542 78.4949 31.1836 83.8608 24.4755C84.244 23.9005 85.0106 22.5589 85.2022 21.9839C84.819 21.7922 82.9026 21.4089 82.3277 21.4089C82.136 22.3672 80.9862 23.5172 80.4113 23.9005C78.1116 25.6254 75.0454 25.4338 72.9374 23.7088C71.9792 22.7505 71.4043 21.7922 71.021 20.2589H85.5855C85.5855 14.8924 83.0942 10.2926 76.9618 10.2926C72.1709 10.2926 68.1465 14.1258 68.1465 18.7256ZM152.084 12.9758C155.342 12.9758 156.683 15.0841 157.833 17.5757H146.143C146.718 14.8924 149.401 12.9758 152.084 12.9758ZM151.892 27.9254C154.767 27.9254 157.45 26.5837 158.983 24.4755C160.899 21.7922 160.133 21.9839 158.983 21.7922C156.108 21.2172 158.408 21.9839 155.533 23.9005C150.551 27.1587 146.143 22.9422 146.143 20.2589H160.324C160.899 20.2589 160.708 19.8756 160.708 18.7256C160.708 11.6342 151.509 7.03434 145.76 12.7842C144.035 14.5091 143.269 16.2341 143.077 18.9173C143.077 23.7088 147.101 27.9254 151.892 27.9254ZM45.9165 17.1924C45.9165 21.7922 48.2161 25.2421 52.0489 26.9671C58.7562 30.0336 66.6133 25.0505 66.6133 17.5757H56.8398C56.8398 21.0256 56.0733 20.2589 59.906 20.2589H63.3555C62.7806 21.6006 62.014 22.7505 60.8642 23.5172C55.3067 27.542 48.5994 23.1338 48.5994 17.959V17.1924C48.5994 13.3591 52.0489 9.90925 55.8816 9.90925C58.7562 9.90925 61.4391 11.0592 62.7806 13.5508C62.9722 13.9341 62.9722 14.1258 63.1639 14.5091L63.7388 15.6591H66.6133C65.2719 10.1009 61.4391 7.03434 55.69 7.03434C52.8154 7.03434 50.3241 8.75929 48.791 10.2926C47.2579 11.8259 45.9165 14.1258 45.9165 17.1924ZM95.934 25.0505C94.0176 25.0505 92.6761 24.4755 91.7179 23.5172C89.2266 20.8339 89.2266 17.1924 91.7179 14.7008C93.4427 12.9758 96.1256 12.5925 98.4252 13.5508C100.342 14.5091 101.875 16.809 101.875 19.109C102.066 21.9839 99.3834 25.0505 95.934 25.0505ZM87.1186 18.7256C87.1186 21.6006 87.6935 23.3255 89.8015 25.4338C92.4845 28.117 97.0838 28.692 100.533 26.5837C100.917 26.2004 101.108 26.0088 101.683 25.8171C101.108 27.9254 98.8085 30.0336 96.1256 30.0336C94.4009 30.0336 93.6343 30.0336 92.2928 29.0753C91.9096 28.8837 91.9096 28.692 91.5263 28.5004C91.3346 28.5004 89.6099 30.0336 89.6099 30.2253C89.8015 30.8003 91.3346 31.7586 91.9096 32.1419C95.1674 33.6752 99.1918 33.1002 101.875 30.417C103.216 29.267 104.558 26.9671 104.558 25.0505V18.1507C104.558 15.0841 102.258 12.2092 99.5751 11.0592C93.4427 8.18431 87.1186 12.9758 87.1186 18.7256ZM19.4704 40C24.6446 40 29.4356 38.6584 33.0767 35.4001L35.568 32.9086C35.9513 32.3336 36.1429 31.9502 36.5262 31.3753C38.8258 27.9254 40.1673 24.2838 40.1673 20.0673C40.1673 12.2092 35.568 5.11773 28.669 1.8595C19.6621 -2.35704 8.73869 0.901196 3.56447 8.56763C2.60628 10.1009 2.60628 10.1009 1.83972 11.6342C0.306621 14.7008 -0.268293 18.7256 0.114983 22.1755C0.114983 22.7505 0.306621 23.5172 0.498259 24.2838C1.07317 27.3504 2.60628 30.2253 4.52266 32.7169C4.90593 33.1002 5.28921 33.4835 5.67248 34.0585C5.86412 34.4418 5.86412 34.2502 6.2474 34.6335C7.39722 35.5918 7.58886 35.9751 9.69688 37.3167C12.3798 38.85 15.8293 40 19.4704 40Z" fill="#282B2B"/>
</svg>
